<svg id="Layer_1" data-name="Layer 1" xmlns="http://www.w3.org/2000/svg" xmlns:xlink="http://www.w3.org/1999/xlink" viewBox="0 0 1373.5 1623.39"><defs><style>.cls-1{fill:url(#linear-gradient);}.cls-2{fill:url(#linear-gradient-2);}.cls-3{fill:url(#linear-gradient-3);}.cls-4{fill:url(#linear-gradient-4);}.cls-5{fill:url(#linear-gradient-5);}.cls-6{fill:url(#linear-gradient-6);}.cls-7{fill:url(#linear-gradient-7);}.cls-8{fill:url(#linear-gradient-8);}</style><linearGradient id="linear-gradient" x1="2109.64" y1="1366.75" x2="2150.81" y2="1366.75" gradientUnits="userSpaceOnUse"><stop offset="0.18" stop-color="#ec008c"/><stop offset="1" stop-color="#f15a29"/></linearGradient><linearGradient id="linear-gradient-2" x1="1250.37" y1="1323.88" x2="2177.66" y2="1323.88" gradientUnits="userSpaceOnUse"><stop offset="0" stop-color="#ec008c"/><stop offset="0.75" stop-color="#f15a29"/></linearGradient><linearGradient id="linear-gradient-3" x1="843.96" y1="2192.06" x2="1309.11" y2="2192.06" gradientUnits="userSpaceOnUse"><stop offset="0.3" stop-color="#f15a29"/><stop offset="0.72" stop-color="#ec008c"/></linearGradient><linearGradient id="linear-gradient-4" x1="1703.23" y1="1979.43" x2="2157.86" y2="1979.43" gradientUnits="userSpaceOnUse"><stop offset="0.19" stop-color="#f05045"/><stop offset="0.82" stop-color="#ec008c"/></linearGradient><linearGradient id="linear-gradient-5" x1="948.89" y1="1976.49" x2="1250.37" y2="1976.49" xlink:href="#linear-gradient-3"/><linearGradient id="linear-gradient-6" x1="2157.86" y1="1362.35" x2="2217.46" y2="1362.35" gradientUnits="userSpaceOnUse"><stop offset="0.33" stop-color="#ec008c"/><stop offset="0.76" stop-color="#f05045"/></linearGradient><linearGradient id="linear-gradient-7" x1="1802.57" y1="1773.14" x2="2109.64" y2="1773.14" xlink:href="#linear-gradient-4"/><linearGradient id="linear-gradient-8" x1="1309.11" y1="1563.42" x2="2109.64" y2="1563.42" gradientUnits="userSpaceOnUse"><stop offset="0.11" stop-color="#ec008c"/><stop offset="0.76" stop-color="#f15a29"/></linearGradient></defs><title>musiclogo</title><path class="cls-1" d="M2150.81,1012.43c0-7.23-7.11-12.64-14.71-11.2l-26.46,5v713.26a182,182,0,0,1,41.17,13Z" transform="translate(-843.96 -719.02)"/><path class="cls-2" d="M1308.81,1157.74V952.49c0-6.18,4.66-11.51,11.16-12.74l830.84-157.81v-.79l26.85-4.78V733.25a14.23,14.23,0,0,0-16.9-14L2109.64,729v.86L1261.76,902.65a14.23,14.23,0,0,0-11.39,13.94V1913c21.46,2.55,41.26,7.76,58.44,15.72Z" transform="translate(-843.96 -719.02)"/><path class="cls-3" d="M923.15,2189.64c-24.19-43.37-12.31-98.11,25.74-147.92-87,66.65-127.62,160.8-92.09,229.13,42.41,81.58,177.29,95.46,301.25,31,70.07-36.43,123.8-90.22,151.06-144.71-25.29,23-56,44-90.77,60.82C1096.87,2276.84,964.71,2264.16,923.15,2189.64Z" transform="translate(-843.96 -719.02)"/><path class="cls-4" d="M2060.34,2021.72c-121.47,58.88-253.63,46.2-295.19-28.32-26.52-47.54-9.71-108.74,37.42-162.12-83.11,66.35-121.26,157.9-86.5,224.75,42.42,81.58,177.29,95.46,301.25,31,65.67-34.14,115-83.41,140.54-134.32C2132.26,1979,2099.24,2002.86,2060.34,2021.72Z" transform="translate(-843.96 -719.02)"/><path class="cls-5" d="M1250.37,1985.26V1913c-54.43-6.47-119.84,4.66-182.55,35.06-50.78,24.62-91.6,57.85-118.93,93.63a377.54,377.54,0,0,1,55.55-35.28C1093.67,1960,1188.38,1954.44,1250.37,1985.26Z" transform="translate(-843.96 -719.02)"/><path class="cls-6" d="M2217.46,785c0-8.16-8-14.3-16.56-12.77l-23.24,4.14V1865.75h-.6c2.41,27.83-4.48,57.67-19.2,87,41.1-42.13,63-90.25,59-133.14h.59Z" transform="translate(-843.96 -719.02)"/><path class="cls-7" d="M2109.64,1770.44v-51c-57.48-11.4-130.32-1.33-199.82,32.36-44,21.32-80.49,49.12-107.25,79.43a375.56,375.56,0,0,1,61.14-39.66C1953,1745.22,2047.66,1739.62,2109.64,1770.44Z" transform="translate(-843.96 -719.02)"/><path class="cls-8" d="M2094.63,970,1339,1123.29a12.52,12.52,0,0,0-10,12.27v945c.16,24.49-6.85,50.61-19.83,76.57,48.39-44.07,77-95.79,76.69-141.32v-863.3a11.67,11.67,0,0,1,9.83-11.21l714-135.08v-24A12.51,12.51,0,0,0,2094.63,970Z" transform="translate(-843.96 -719.02)"/></svg>