<svg id="Layer_1" data-name="Layer 1" xmlns="http://www.w3.org/2000/svg" xmlns:xlink="http://www.w3.org/1999/xlink" viewBox="0 0 1358.64 234.77"><defs><style>.cls-1{fill:url(#linear-gradient);}.cls-2{fill:url(#linear-gradient-2);}.cls-3{fill:url(#linear-gradient-3);}.cls-4{fill:url(#linear-gradient-4);}.cls-5{fill:url(#linear-gradient-5);}.cls-6{fill:url(#linear-gradient-6);}.cls-7{fill:url(#linear-gradient-7);}.cls-8{fill:url(#linear-gradient-8);}</style><linearGradient id="linear-gradient" x1="783.64" y1="1093.93" x2="1016.58" y2="1093.93" gradientUnits="userSpaceOnUse"><stop offset="0" stop-color="#ec008c"/><stop offset="1" stop-color="#f15a29"/></linearGradient><linearGradient id="linear-gradient-2" x1="1048.6" y1="1123.73" x2="1200.28" y2="1123.73" xlink:href="#linear-gradient"/><linearGradient id="linear-gradient-3" x1="1222.39" y1="1122.21" x2="1367.98" y2="1122.21" xlink:href="#linear-gradient"/><linearGradient id="linear-gradient-4" x1="1389.63" y1="1088.29" x2="1435.97" y2="1088.29" xlink:href="#linear-gradient"/><linearGradient id="linear-gradient-5" x1="1468.6" y1="1093.93" x2="1634.31" y2="1093.93" xlink:href="#linear-gradient"/><linearGradient id="linear-gradient-6" x1="1646.36" y1="1122.21" x2="1808.26" y2="1122.21" xlink:href="#linear-gradient"/><linearGradient id="linear-gradient-7" x1="1824.26" y1="1122.21" x2="1969.86" y2="1122.21" xlink:href="#linear-gradient"/><linearGradient id="linear-gradient-8" x1="1985.86" y1="1122.21" x2="2142.28" y2="1122.21" xlink:href="#linear-gradient"/></defs><title>new</title><path class="cls-1" d="M975.57,1203.92V1055.43h-1.22l-59.76,148.49h-29l-59.76-148.49h-1.22v148.49h-41v-220H837l62.51,157.94h1.22l62.5-157.94h53.36v220Z" transform="translate(-783.64 -972.65)"/><path class="cls-2" d="M1200.28,1203.92h-43V1174.5h-.91c-8.08,20.58-24.24,32.47-48.94,32.47-35.37,0-58.84-23-58.84-61.13V1040.49h44.51v96c0,21.8,10.82,33.38,30.49,33.38,19.82,0,32.17-14.18,32.17-35.82v-93.61h44.51Z" transform="translate(-783.64 -972.65)"/><path class="cls-3" d="M1295,1037c41.92,0,67.84,21.49,68.75,53.51h-41c-1.37-13.27-11.28-22.26-27.74-22.26-15.4,0-25.62,7-25.62,17.83,0,8.39,6.1,14,22.57,17.54l27.89,5.94c34.15,7.17,48.18,20.58,48.18,44.52,0,32.16-29.42,53.36-71.5,53.36-45.13,0-71.19-21-74.09-53.21h43.45c2.74,14.33,13,22,30.64,22,16.77,0,27.14-6.86,27.14-17.53,0-8.69-5.64-13.57-21.65-17.23l-27.9-5.79c-31.56-6.71-47.57-22.56-47.57-47.11C1226.5,1057.41,1253.34,1037,1295,1037Z" transform="translate(-783.64 -972.65)"/><path class="cls-4" d="M1389.63,995.52a23.17,23.17,0,1,1,23.17,22.87A22.91,22.91,0,0,1,1389.63,995.52Zm1.07,45h44.51v163.43H1390.7Z" transform="translate(-783.64 -972.65)"/><path class="cls-5" d="M1558.09,983.93c45.12,0,76.22,30,76.22,75.31s-32.17,75.31-78.51,75.31h-41.16v69.37h-46v-220Zm-43.45,114.65h31.1c26.37,0,41.77-14,41.77-39.18s-15.25-39-41.62-39h-31.25Z" transform="translate(-783.64 -972.65)"/><path class="cls-6" d="M1646.36,1122.05c0-52.9,32-85.06,81-85.06s81,32,81,85.06c0,53.82-31.56,85.38-81,85.38S1646.36,1175.72,1646.36,1122.05Zm116.62.16c0-32.48-14-51.23-35.67-51.23s-35.83,18.75-35.83,51.23c0,32.77,13.87,51.22,35.83,51.22C1749.11,1173.43,1763,1155,1763,1122.21Z" transform="translate(-783.64 -972.65)"/><path class="cls-7" d="M1896.83,1037c41.93,0,67.84,21.49,68.76,53.51h-41c-1.38-13.27-11.28-22.26-27.75-22.26-15.4,0-25.61,7-25.61,17.83,0,8.39,6.1,14,22.56,17.54l27.9,5.94c34.15,7.17,48.18,20.58,48.18,44.52,0,32.16-29.43,53.36-71.5,53.36-45.13,0-71.2-21-74.1-53.21h43.45c2.75,14.33,13,22,30.65,22,16.77,0,27.13-6.86,27.13-17.53,0-8.69-5.64-13.57-21.65-17.23l-27.89-5.79c-31.56-6.71-47.57-22.56-47.57-47.11C1828.38,1057.41,1855.21,1037,1896.83,1037Z" transform="translate(-783.64 -972.65)"/><path class="cls-8" d="M2140.91,1153.91c-4.88,32-34.15,53.52-74.55,53.52-50.31,0-80.5-32.17-80.5-84.46s30.49-86,78.82-86c47.56,0,77.6,32.16,77.6,81.86v13.57H2029.62v2.74c0,23.33,14.78,39.34,37.5,39.34,16.31,0,28.81-8.08,32.93-20.59Zm-110.84-48.78h69.37c-.92-20.88-14.48-35.22-34.3-35.22C2045.62,1069.91,2031.6,1084.7,2030.07,1105.13Z" transform="translate(-783.64 -972.65)"/></svg>